<svg width="18" height="20" viewBox="0 0 18 20" fill="none" xmlns="http://www.w3.org/2000/svg">
<path id="Vector" fill-rule="evenodd" clip-rule="evenodd" d="M17.6672 8.5981C17.6635 10.754 17.667 12.9099 17.667 15.0658C17.6671 15.9523 17.6671 16.7161 17.5781 17.3278C17.4825 17.9833 17.2673 18.6116 16.7151 19.1213C16.163 19.6309 15.4823 19.8297 14.7721 19.9178C14.1095 20.0001 13.282 20 12.3216 20H5.67908C4.71871 20 3.89124 20.0001 3.22861 19.9178C2.51846 19.8297 1.83775 19.6309 1.28561 19.1213C0.733472 18.6116 0.51817 17.9833 0.422696 17.3278C0.333603 16.7161 0.333657 15.9523 0.333711 15.0658C0.333711 12.9099 0.337319 10.754 0.333538 8.5981C0.332303 7.88495 0.331198 7.25177 0.604631 6.67295C0.878075 6.09413 1.38148 5.66402 1.94846 5.17961C3.08878 4.20534 4.22583 3.22779 5.36445 2.25182C6.02102 1.68899 6.58922 1.2019 7.10312 0.864158C7.6553 0.501228 8.26218 0.229248 9.00037 0.229248C9.73855 0.229248 10.3454 0.501228 10.8976 0.864158C11.4115 1.2019 11.9797 1.68899 12.6362 2.25182C13.7672 3.22133 14.9119 4.20529 16.0523 5.17961C16.6192 5.66403 17.1227 6.09413 17.3961 6.67295C17.6695 7.25177 17.6684 7.88496 17.6672 8.5981ZM9.00004 14C8.40172 14 7.91671 14.4477 7.91671 15V17C7.91671 17.5523 7.4317 18 6.83337 18C6.23507 18 5.75004 17.5523 5.75004 17V15C5.75004 13.3431 7.20507 12 9.00004 12C10.795 12 12.25 13.3431 12.25 15V17C12.25 17.5523 11.765 18 11.1667 18C10.5684 18 10.0834 17.5523 10.0834 17V15C10.0834 14.4477 9.59837 14 9.00004 14Z" fill="#47A87C"/>
</svg>
